<svg width="677" height="1033" viewBox="0 0 677 1033" fill="none" xmlns="http://www.w3.org/2000/svg">
<path d="M356.374 392.487L357.416 452.947C500.228 452.947 616.979 569.698 616.979 712.51C616.979 855.322 500.228 972.073 357.416 972.073C279.234 972.073 206.265 938.716 155.186 877.213C144.762 864.704 124.956 862.619 112.447 873.043C99.938 883.468 97.853 903.274 108.277 915.783C169.78 989.795 259.428 1032.53 355.331 1032.53C533.585 1032.53 676.397 887.637 676.397 712.51C676.397 537.383 531.501 392.487 356.374 392.487ZM522.119 712.51C522.119 803.201 448.107 878.255 356.374 878.255C307.38 878.255 260.471 856.365 229.198 818.837C218.774 806.328 198.968 804.243 186.459 814.668C173.95 825.092 171.865 844.898 182.289 857.407C225.028 909.528 288.616 939.758 356.374 939.758C481.464 939.758 582.579 838.643 582.579 713.553C582.579 588.462 481.464 487.347 356.374 487.347L357.416 547.808C448.107 546.765 522.119 621.82 522.119 712.51ZM426.216 712.51C426.216 750.038 394.943 781.31 357.416 781.31C336.568 781.31 316.762 771.928 304.253 756.292C293.828 743.783 274.022 741.698 261.513 752.122C249.004 762.547 246.919 782.353 257.343 794.862C283.404 825.092 318.846 841.771 358.458 841.771C430.386 841.771 488.761 783.395 488.761 711.468C488.761 639.541 430.386 581.165 358.458 581.165L356.374 639.541C394.943 643.71 426.216 674.983 426.216 712.51Z" fill="#222326"/>
<path d="M320.378 640.303L319.336 579.842C176.524 579.842 59.772 463.091 59.772 320.279C59.772 177.467 176.524 60.716 319.336 60.716C397.517 60.716 470.487 94.074 521.565 155.577C531.99 168.086 551.796 170.171 564.305 159.746C576.814 149.322 578.899 129.516 568.474 117.007C506.972 42.995 417.323 0.255981 321.42 0.255981C143.166 0.255981 0.354004 145.152 0.354004 320.279C0.354004 495.406 145.251 640.303 320.378 640.303ZM154.633 320.279C154.633 229.589 228.645 154.534 320.378 154.534C369.372 154.534 416.281 176.425 447.553 213.952C457.978 226.461 477.784 228.546 490.293 218.122C502.802 207.698 504.887 187.892 494.462 175.383C451.723 123.261 388.135 93.031 320.378 93.031C195.287 93.031 94.172 194.146 94.172 319.237C94.172 444.327 195.287 545.442 320.378 545.443L319.336 484.982C228.645 486.024 154.633 410.97 154.633 320.279ZM250.536 320.279C250.536 282.752 281.808 251.479 319.336 251.479C340.184 251.479 359.99 260.861 372.499 276.498C382.923 289.007 402.729 291.091 415.238 280.667C427.747 270.243 429.832 250.437 419.408 237.928C393.348 207.698 357.905 191.019 318.293 191.019C246.366 191.019 187.99 249.395 187.99 321.322C187.99 393.249 246.366 451.624 318.293 451.624L320.378 393.249C281.808 389.079 250.536 357.807 250.536 320.279Z" fill="#222326"/>
</svg>
